<svg width="22" height="22" viewBox="0 0 22 22" fill="none" xmlns="http://www.w3.org/2000/svg">
<path d="M15.682 15.1792L16.2028 15.3014L17.8938 20.1597C17.9477 20.3144 17.8223 20.4727 17.6593 20.4556L15.2891 20.2074C15.2228 20.2005 15.157 20.2234 15.1095 20.2699L13.4055 21.9362C13.2884 22.0507 13.0919 22.0046 13.038 21.8498L11.3359 16.9598L11.5822 16.5989L15.682 15.1792Z" fill="#FF4755"/>
<path d="M11.3361 16.9596L10.9922 15.9716L15.8601 14.3162L16.203 15.3013C14.8207 16.2877 13.147 16.8915 11.3361 16.9596Z" fill="#FC2B3A"/>
<path d="M6.3095 15.1792L5.78863 15.3014L4.09764 20.1597C4.04375 20.3144 4.16914 20.4727 4.33212 20.4556L6.7024 20.2074C6.76862 20.2005 6.83445 20.2234 6.88201 20.2699L8.58594 21.9362C8.70307 22.0507 8.89961 22.0046 8.95345 21.8498L10.6555 16.9598L10.4092 16.5989L6.3095 15.1792Z" fill="#FF4755"/>
<path d="M10.6559 16.9596L10.9999 15.9716L6.13195 14.3162L5.78906 15.3013C7.17132 16.2877 8.84508 16.8915 10.6559 16.9596Z" fill="#FC2B3A"/>
<path d="M10.9996 15.4089C3.02379 15.4089 3.01717 7.71667 3.02379 7.58334C3.23343 3.3599 6.72417 0 10.9996 0C15.2751 0 18.7659 3.3599 18.9755 7.58334C18.9821 7.71667 18.9855 15.4089 10.9996 15.4089Z" fill="#FFCB5B"/>
<path d="M10.9995 15.1666C6.72402 15.1666 3.23341 11.8067 3.02373 7.58325C3.01711 7.71658 3.01367 7.85078 3.01367 7.98574C3.01367 12.3962 6.58906 15.9716 10.9995 15.9716C15.4099 15.9716 18.9853 12.3962 18.9853 7.98574C18.9853 7.85078 18.9819 7.71658 18.9753 7.58325C18.7656 11.8067 15.275 15.1666 10.9995 15.1666Z" fill="#F7B737"/>
<path d="M10.9997 13.7514C4.72126 13.7514 4.71284 7.71655 4.72126 7.58343C4.9288 4.2965 7.66045 1.69482 10.9997 1.69482C14.339 1.69482 17.0706 4.2965 17.2782 7.58343C17.2866 7.71655 17.2909 13.7514 10.9997 13.7514Z" fill="#FF9838"/>
<path d="M10.9991 13.4719C7.65987 13.4719 4.92878 10.8701 4.7212 7.58325C4.71278 7.71637 4.70801 7.85052 4.70801 7.98574C4.70801 11.4602 7.52465 14.2769 10.9991 14.2769C14.4736 14.2769 17.2903 11.4602 17.2903 7.98574C17.2903 7.85048 17.2855 7.71637 17.2771 7.58325C17.0695 10.8701 14.3384 13.4719 10.9991 13.4719Z" fill="#FF8709"/>
<path d="M11.5749 4.92124L12.1617 6.1101C12.2552 6.29964 12.4361 6.43104 12.6452 6.46141L13.9572 6.65207C14.484 6.72859 14.6943 7.37596 14.3132 7.74756L13.3638 8.67293C13.2124 8.82048 13.1434 9.03305 13.1791 9.24141L13.4032 10.5481C13.4245 10.672 13.3692 10.8921 13.3692 10.8921H12.4713L10.999 10.0643L9.5267 10.8921L8.63621 10.91C8.63621 10.91 8.57232 10.6792 8.59483 10.548L8.81896 9.24136C8.85471 9.03301 8.78561 8.82044 8.63423 8.67289L7.68488 7.74751C7.30371 7.37596 7.51404 6.72859 8.04084 6.65202L9.3528 6.46137C9.56197 6.43099 9.74283 6.29959 9.83637 6.11006L10.4231 4.9212C10.6587 4.4439 11.3394 4.4439 11.5749 4.92124Z" fill="#FFF5F5"/>
<path d="M10.8957 9.70098L8.62988 10.8922C8.76167 11.2256 9.16755 11.4145 9.52741 11.2253L10.7009 10.6084C10.888 10.51 11.1115 10.51 11.2986 10.6084L12.4721 11.2253C12.832 11.4145 13.2379 11.2256 13.3696 10.8922L11.1038 9.70098C11.0386 9.66673 10.9608 9.66673 10.8957 9.70098Z" fill="#EFE2DD"/>
</svg>
