<svg xmlns="http://www.w3.org/2000/svg" width="33" height="32" viewBox="0 0 33 32"><g><g><path d="M32.936 7.427c-.767 3.91-1.531 7.819-2.297 11.729-.356 1.82-1.36 3.046-3.156 3.51-.375.096-.778.106-1.168.107-2.479.009-4.957.005-7.436.005-2.478 0-4.958-.048-7.435.013-2.285.058-4.084-1.638-4.37-3.937-.441-3.533-.994-7.052-1.498-10.577C5.353 6.718 5.13 5.16 4.91 3.6c-.073-.521-.139-.584-.658-.585-.883-.001-1.767.005-2.65-.002C.676 3.007.018 2.374.017 1.502.015.648.66.01 1.569-.002a87.73 87.73 0 0 1 2.871 0c1.802.035 3.088 1.193 3.378 3.03.107.68.214 1.359.288 2.041.031.289.133.369.41.368 4.013-.01 8.025-.008 12.037-.008 3.595 0 7.19 0 10.785.003 1.188.002 1.83.814 1.598 1.995zM11.862 24.196c2.073.027 3.767 1.819 3.75 3.969-.015 2.07-1.772 3.87-3.754 3.848-2.094-.025-3.8-1.798-3.782-3.931.018-2.134 1.752-3.913 3.786-3.886zm13.114-.004c2.124-.008 3.846 1.736 3.848 3.897.002 2.176-1.706 3.925-3.826 3.92-2.124-.005-3.845-1.76-3.84-3.914.006-2.14 1.723-3.896 3.818-3.903z"/><path fill="none" d="M32.936 7.427c-.767 3.91-1.531 7.819-2.297 11.729-.356 1.82-1.36 3.046-3.156 3.51-.375.096-.778.106-1.168.107-2.479.009-4.957.005-7.436.005-2.478 0-4.958-.048-7.435.013-2.285.058-4.084-1.638-4.37-3.937-.441-3.533-.994-7.052-1.498-10.577C5.353 6.718 5.13 5.16 4.91 3.6c-.073-.521-.139-.584-.658-.585-.883-.001-1.767.005-2.65-.002C.676 3.007.018 2.374.017 1.502.015.648.66.01 1.569-.002a87.73 87.73 0 0 1 2.871 0c1.802.035 3.088 1.193 3.378 3.03.107.68.214 1.359.288 2.041.031.289.133.369.41.368 4.013-.01 8.025-.008 12.037-.008 3.595 0 7.19 0 10.785.003 1.188.002 1.83.814 1.598 1.995zM11.862 24.196c2.073.027 3.767 1.819 3.75 3.969-.015 2.07-1.772 3.87-3.754 3.848-2.094-.025-3.8-1.798-3.782-3.931.018-2.134 1.752-3.913 3.786-3.886zm13.114-.004c2.124-.008 3.846 1.736 3.848 3.897.002 2.176-1.706 3.925-3.826 3.92-2.124-.005-3.845-1.76-3.84-3.914.006-2.14 1.723-3.896 3.818-3.903z"/></g></g></svg>
