<svg xmlns="http://www.w3.org/2000/svg" width="39" height="39" viewBox="0 0 39 39"><g><g><path fill="#00db5d" d="M19.5.154c10.684 0 19.346 8.66 19.346 19.346 0 10.685-8.662 19.346-19.346 19.346C8.815 38.846.153 30.185.153 19.5S8.815.154 19.5.154z"/><path fill="none" d="M19.5.154c10.684 0 19.346 8.66 19.346 19.346 0 10.685-8.662 19.346-19.346 19.346C8.815 38.846.153 30.185.153 19.5S8.815.154 19.5.154z"/></g><g><path fill="#fff" d="M31.28 14.066L16.157 29.188l-8.47-8.407 3.45-3.387 5.02 4.96L27.833 10.68z"/></g></g></svg>