<svg xmlns="http://www.w3.org/2000/svg" width="35" height="35" viewBox="0 0 35 35"><g><g><path fill="#343e97" d="M9.066.616h15.962c3.168 0 4.317.38 5.475 1.093 1.158.712 2.067 1.759 2.687 3.094.619 1.332.949 2.656.949 6.303v13.203c0 3.647-.33 4.97-.95 6.303-.619 1.335-1.528 2.38-2.686 3.094-1.158.713-2.307 1.094-5.475 1.094H9.066c-3.168 0-4.317-.38-5.475-1.094-1.158-.714-2.067-1.76-2.686-3.094-.62-1.333-.95-2.656-.95-6.303V11.106c0-3.647.33-4.97.95-6.303.62-1.335 1.528-2.382 2.686-3.094C4.75.996 5.898.616 9.066.616z"/><path fill="none" d="M9.066.616h15.962c3.168 0 4.317.38 5.475 1.093 1.158.712 2.067 1.759 2.687 3.094.619 1.332.949 2.656.949 6.303v13.203c0 3.647-.33 4.97-.95 6.303-.619 1.335-1.528 2.38-2.686 3.094-1.158.713-2.307 1.094-5.475 1.094H9.066c-3.168 0-4.317-.38-5.475-1.094-1.158-.714-2.067-1.76-2.686-3.094-.62-1.333-.95-2.656-.95-6.303V11.106c0-3.647.33-4.97.95-6.303.62-1.335 1.528-2.382 2.686-3.094C4.75.996 5.898.616 9.066.616z"/></g><g><path fill="#fff" d="M18.596 34.625v-9.77h4.522l.678-5.253h-5.2v-3.354c0-1.52.42-2.557 2.603-2.557l2.78-.002V8.991c-.48-.062-2.13-.205-4.051-.205-4.011 0-6.757 2.447-6.757 6.941v3.875H8.635v5.253h4.536v9.77z"/></g></g></svg>