<svg xmlns="http://www.w3.org/2000/svg" width="35" height="35" viewBox="0 0 35 35"><defs><linearGradient id="b0a" x1=".38" x2="34.38" y1="34.8" y2=".62" gradientUnits="userSpaceOnUse"><stop offset="0" stop-color="#ffcb00"/><stop offset=".23" stop-color="#ff9000"/><stop offset=".76" stop-color="#ff008b"/><stop offset="1" stop-color="#d200dd"/></linearGradient></defs><g><g><path fill="red" d="M9.492.616h15.963c3.168 0 4.316.38 5.475 1.093 1.158.712 2.067 1.759 2.686 3.094.62 1.332.95 2.656.95 6.303v13.203c0 3.647-.33 4.97-.95 6.303-.62 1.335-1.528 2.38-2.686 3.094-1.159.713-2.307 1.094-5.475 1.094H9.492c-3.167 0-4.316-.38-5.474-1.094-1.158-.714-2.067-1.76-2.687-3.094C.712 29.28.382 27.956.382 24.31V11.106c0-3.647.33-4.97.95-6.303C1.95 3.468 2.86 2.42 4.017 1.709 5.176.996 6.325.616 9.492.616z"/><path fill="url(#b0a)" d="M9.492.616h15.963c3.168 0 4.316.38 5.475 1.093 1.158.712 2.067 1.759 2.686 3.094.62 1.332.95 2.656.95 6.303v13.203c0 3.647-.33 4.97-.95 6.303-.62 1.335-1.528 2.38-2.686 3.094-1.159.713-2.307 1.094-5.475 1.094H9.492c-3.167 0-4.316-.38-5.474-1.094-1.158-.714-2.067-1.76-2.687-3.094C.712 29.28.382 27.956.382 24.31V11.106c0-3.647.33-4.97.95-6.303C1.95 3.468 2.86 2.42 4.017 1.709 5.176.996 6.325.616 9.492.616z"/><path fill="none" d="M9.492.616h15.963c3.168 0 4.316.38 5.475 1.093 1.158.712 2.067 1.759 2.686 3.094.62 1.332.95 2.656.95 6.303v13.203c0 3.647-.33 4.97-.95 6.303-.62 1.335-1.528 2.38-2.686 3.094-1.159.713-2.307 1.094-5.475 1.094H9.492c-3.167 0-4.316-.38-5.474-1.094-1.158-.714-2.067-1.76-2.687-3.094C.712 29.28.382 27.956.382 24.31V11.106c0-3.647.33-4.97.95-6.303C1.95 3.468 2.86 2.42 4.017 1.709 5.176.996 6.325.616 9.492.616z"/></g><g><path fill="#fff" d="M29.703 17.025c0 3.32-.014 3.735-.071 5.039-.058 1.3-.268 2.187-.569 2.966a6.256 6.256 0 0 1-3.579 3.579c-.773.3-1.667.51-2.966.567-1.305.058-1.72.072-5.041.072-3.32 0-3.736-.014-5.04-.072-1.3-.056-2.189-.267-2.968-.567a6.023 6.023 0 0 1-2.164-1.41 6.028 6.028 0 0 1-1.414-2.169c-.301-.774-.512-1.666-.569-2.966-.057-1.304-.071-1.72-.071-5.04 0-3.32.014-3.735.076-5.044.057-1.3.268-2.188.569-2.966a6.02 6.02 0 0 1 1.409-2.165 5.96 5.96 0 0 1 2.17-1.413c.773-.3 1.667-.511 2.966-.568 1.304-.058 1.72-.073 5.04-.073 3.321 0 3.737.015 5.046.077 1.3.057 2.188.267 2.967.569a6.01 6.01 0 0 1 2.164 1.408 5.967 5.967 0 0 1 1.415 2.17c.3.773.51 1.667.568 2.966.057 1.304.062 1.72.062 5.04zm-2.193.008c0-3.262-.014-3.649-.071-4.938-.053-1.19-.254-1.84-.42-2.27a3.799 3.799 0 0 0-.913-1.404A3.752 3.752 0 0 0 24.7 7.51c-.43-.167-1.075-.368-2.27-.42-1.285-.058-1.672-.072-4.94-.072-3.263 0-3.65.014-4.94.071-1.19.053-1.84.254-2.27.421a3.787 3.787 0 0 0-1.404.912 3.713 3.713 0 0 0-.917 1.405c-.168.43-.368 1.075-.42 2.269-.058 1.285-.072 1.676-.072 4.938 0 3.264.014 3.65.071 4.94.053 1.19.253 1.84.42 2.27a3.81 3.81 0 0 0 .913 1.404c.392.406.875.716 1.405.912.43.167 1.075.368 2.27.42 1.285.058 1.676.072 4.94.072 3.263 0 3.65-.014 4.94-.072 1.19-.052 1.84-.253 2.27-.42a4.059 4.059 0 0 0 2.321-2.322c.167-.43.368-1.074.42-2.268.058-1.29.072-1.672.072-4.936zm-3.746-.008a6.283 6.283 0 0 1-12.565 0 6.284 6.284 0 0 1 12.565 0zm-2.207 0a4.076 4.076 0 1 0-8.152.001 4.076 4.076 0 0 0 8.152-.001zm3.923-6.53a1.467 1.467 0 1 1-2.933 0 1.467 1.467 0 0 1 2.933 0z"/></g></g></svg>
