<svg xmlns="http://www.w3.org/2000/svg" width="51" height="51" viewBox="0 0 51 51"><defs><linearGradient id="buq1a" x1=".49" x2="50.23" y1=".63" y2="50.24" gradientUnits="userSpaceOnUse"><stop offset="0" stop-color="#00ff24"/><stop offset=".23" stop-color="#00ff24"/><stop offset="1" stop-color="#009a07"/></linearGradient></defs><g><g><path fill="#00ff6c" d="M25.364.632c13.736 0 24.87 11.106 24.87 24.806 0 13.7-11.134 24.807-24.87 24.807-13.735 0-24.87-11.106-24.87-24.807C.494 11.738 11.63.632 25.364.632z"/><path fill="url(#buq1a)" d="M25.364.632c13.736 0 24.87 11.106 24.87 24.806 0 13.7-11.134 24.807-24.87 24.807-13.735 0-24.87-11.106-24.87-24.807C.494 11.738 11.63.632 25.364.632z"/><path fill="none" d="M25.364.632c13.736 0 24.87 11.106 24.87 24.806 0 13.7-11.134 24.807-24.87 24.807-13.735 0-24.87-11.106-24.87-24.807C.494 11.738 11.63.632 25.364.632z"/></g><g><path fill="#fff" d="M38.765 33.963l-3.207-2.133-2.85-1.895a1.265 1.265 0 0 0-1.696.274l-1.764 2.263c-.38.49-1.06.631-1.604.331-1.197-.664-2.612-1.29-5.735-4.408-3.123-3.119-3.754-4.527-4.42-5.72-.3-.542-.16-1.222.333-1.6l2.267-1.76a1.258 1.258 0 0 0 .276-1.691l-1.842-2.756-2.196-3.285a1.265 1.265 0 0 0-1.7-.382l-2.534 1.515a3.088 3.088 0 0 0-1.405 1.815c-.693 2.518-.833 8.075 8.096 16.98 8.929 8.906 14.5 8.767 17.025 8.076a3.092 3.092 0 0 0 1.819-1.403l1.52-2.526a1.258 1.258 0 0 0-.383-1.695z"/><path fill="none" d="M38.765 33.963l-3.207-2.133-2.85-1.895a1.265 1.265 0 0 0-1.696.274l-1.764 2.263c-.38.49-1.06.631-1.604.331-1.197-.664-2.612-1.29-5.735-4.408-3.123-3.119-3.754-4.527-4.42-5.72-.3-.542-.16-1.222.333-1.6l2.267-1.76a1.258 1.258 0 0 0 .276-1.691l-1.842-2.756-2.196-3.285a1.265 1.265 0 0 0-1.7-.382l-2.534 1.515a3.088 3.088 0 0 0-1.405 1.815c-.693 2.518-.833 8.075 8.096 16.98 8.929 8.906 14.5 8.767 17.025 8.076a3.092 3.092 0 0 0 1.819-1.403l1.52-2.526a1.258 1.258 0 0 0-.383-1.695z"/></g></g></svg>