<svg xmlns="http://www.w3.org/2000/svg" width="35" height="35" viewBox="0 0 35 35"><g><g><path fill="#00db5d" d="M17.5.328c9.484 0 17.172 7.688 17.172 17.172 0 9.484-7.688 17.172-17.172 17.172C8.016 34.672.328 26.984.328 17.5.328 8.016 8.016.328 17.5.328z"/><path fill="none" d="M17.5.328c9.484 0 17.172 7.688 17.172 17.172 0 9.484-7.688 17.172-17.172 17.172C8.016 34.672.328 26.984.328 17.5.328 8.016 8.016.328 17.5.328z"/></g><g><path fill="#fff" d="M27.098 23.4l-2.214-1.475-1.969-1.313a.872.872 0 0 0-1.17.191l-1.218 1.566a.867.867 0 0 1-1.108.23c-.826-.46-1.804-.893-3.96-3.053-2.156-2.159-2.592-3.133-3.051-3.96a.867.867 0 0 1 .23-1.106l1.565-1.219c.36-.28.443-.79.19-1.17l-1.272-1.909-1.516-2.274a.873.873 0 0 0-1.174-.264l-1.749 1.05c-.473.278-.82.727-.97 1.255-.479 1.744-.575 5.59 5.59 11.755 6.165 6.165 10.011 6.068 11.755 5.59.527-.15.977-.498 1.256-.97l1.049-1.75a.872.872 0 0 0-.264-1.173z"/><path fill="none" d="M27.098 23.4l-2.214-1.475-1.969-1.313a.872.872 0 0 0-1.17.191l-1.218 1.566a.867.867 0 0 1-1.108.23c-.826-.46-1.804-.893-3.96-3.053-2.156-2.159-2.592-3.133-3.051-3.96a.867.867 0 0 1 .23-1.106l1.565-1.219c.36-.28.443-.79.19-1.17l-1.272-1.909-1.516-2.274a.873.873 0 0 0-1.174-.264l-1.749 1.05c-.473.278-.82.727-.97 1.255-.479 1.744-.575 5.59 5.59 11.755 6.165 6.165 10.011 6.068 11.755 5.59.527-.15.977-.498 1.256-.97l1.049-1.75a.872.872 0 0 0-.264-1.173z"/></g></g></svg>