<svg xmlns="http://www.w3.org/2000/svg" width="20" height="30" viewBox="0 0 20 30"><g><g clip-path="url(#clip-2027)"><path fill="#fff" d="M5.393 15.241l4.945-4.24c2.618-2.245 5.24-4.485 7.853-6.735.643-.554.935-1.254.732-2.11-.196-.822-.707-1.356-1.524-1.561-.72-.18-1.367-.004-1.936.483-3.386 2.903-6.775 5.803-10.162 8.704-1.424 1.219-2.845 2.44-4.27 3.657-1.325 1.13-1.328 2.483 0 3.62l14.475 12.396c.963.825 2.3.77 3.066-.135.79-.933.66-2.203-.322-3.046-4.183-3.586-8.369-7.168-12.553-10.752-.084-.072-.163-.15-.304-.281z"/></g></g></svg>