<svg xmlns="http://www.w3.org/2000/svg" width="36" height="35" viewBox="0 0 36 35"><g><g><path fill="#43bded" d="M9.99.616h15.963c3.168 0 4.316.38 5.474 1.093 1.158.712 2.067 1.759 2.687 3.094.619 1.332.949 2.656.949 6.303v13.203c0 3.647-.33 4.97-.95 6.303-.619 1.335-1.528 2.38-2.686 3.094-1.158.713-2.306 1.094-5.474 1.094H9.99c-3.168 0-4.316-.38-5.474-1.094-1.159-.714-2.068-1.76-2.687-3.094-.62-1.333-.95-2.656-.95-6.303V11.106c0-3.647.33-4.97.95-6.303.62-1.335 1.528-2.382 2.687-3.094C5.674.996 6.822.616 9.99.616z"/><path fill="none" d="M9.99.616h15.963c3.168 0 4.316.38 5.474 1.093 1.158.712 2.067 1.759 2.687 3.094.619 1.332.949 2.656.949 6.303v13.203c0 3.647-.33 4.97-.95 6.303-.619 1.335-1.528 2.38-2.686 3.094-1.158.713-2.306 1.094-5.474 1.094H9.99c-3.168 0-4.316-.38-5.474-1.094-1.159-.714-2.068-1.76-2.687-3.094-.62-1.333-.95-2.656-.95-6.303V11.106c0-3.647.33-4.97.95-6.303.62-1.335 1.528-2.382 2.687-3.094C5.674.996 6.822.616 9.99.616z"/></g><g><path fill="#fff" d="M14.84 20.105l-.331 4.635c.474 0 .68-.202.926-.445l2.222-2.113 4.606 3.355c.845.468 1.44.222 1.668-.773l3.023-14.09.001-.001c.268-1.241-.452-1.727-1.275-1.423L7.91 16.017c-1.213.468-1.195 1.14-.207 1.445l4.544 1.406L22.8 12.299c.496-.327.948-.145.577.183z"/></g></g></svg>