<svg xmlns="http://www.w3.org/2000/svg" width="289" height="59" viewBox="0 0 289 59"><g><g><path fill="#fff" d="M288.453 10.998c-.503.484-.754.81-.754.977l.503.126c-1.341.841-2.032 1.26-2.073 1.26l-.251-.063c-.67 0-1.55 1.24-2.639 3.72-.376.798-.565 1.597-.565 2.395v1.576l.315 3.53c0 .463-.106.82-.315 1.072-.838.84-1.79 1.292-2.857 1.355-1.068.063-1.687 0-1.853-.19-.168-.188-.461-.367-.88-.535-.837-.336-1.423-1.49-1.758-3.467a10.824 10.824 0 0 1-.063-1.197c0-1.723.409-3.53 1.225-5.422.816-1.89 1.225-2.972 1.225-3.246 0-.273-.063-.451-.189-.536-.125-.084-1.141-.126-3.046-.126-1.906 0-3.37.252-4.396.757-1.027.503-1.884 1.071-2.575 1.702-.691.63-1.256.976-1.696 1.04-.44.063-.702.136-.785.22-.042.21-.294.672-.754 1.387-.461.715-1.005 1.702-1.633 2.963-.628 1.26-.963 2.049-1.005 2.363-.042.315-.168.768-.377 1.356-.921 2.185-1.382 4.664-1.382 7.438s.283 5.295.849 7.564c.565 2.27 1.077 3.405 1.539 3.405.125.125.188.21.188.251.125.505.712 1.083 1.758 1.734 1.046.652 2.292.977 3.737.977 1.445 0 3.11-.86 4.993-2.584.712-.672 1.172-1.05 1.382-1.135.209-.084.335-.19.377-.315 0-.378.795-.903 2.386-1.576h.252c.125 0 .188.148.188.441l-.188 2.458c0 .673.063 1.009.188 1.009.21 0 .418-.136.628-.41.21-.272.335-.41.377-.41-.377 1.473-.681 2.27-.91 2.396a.86.86 0 0 0-.44.568c-.063.252-.712 1.04-1.947 2.363-1.236 1.324-1.853 2.09-1.853 2.301-.377.336-1.466.966-3.266 1.891s-3.371 1.387-4.71 1.387c-1.34 0-2.785-.253-4.334-.756-1.55-.504-2.492-1.03-2.827-1.576-.125-.127-.313-.19-.565-.19-.25 0-.921-.62-2.01-1.86-1.088-1.239-1.654-1.931-1.695-2.079-.042-.147-.148-.262-.314-.347-.168-.083-.356-.388-.565-.914-.21-.525-.42-.788-.628-.788a.719.719 0 0 1-.22-.41c-.022-.146-.136-.473-.346-.976-.836-2.06-1.402-5.044-1.695-8.952 0-.294-.02-.588-.063-.883 0-3.656 1.089-8.29 3.266-13.9 2.176-5.609 3.935-9.023 5.276-10.242.208-.168.355-.336.439-.505 0-.504 1.11-1.617 3.329-3.34 2.219-1.723 3.715-2.72 4.49-2.995l2.952-1.04c1.194-.42 2.24-.63 3.14-.63.9 0 1.968.283 3.204.85 1.234.568 2.261 1.65 3.077 3.247.817 1.598 1.455 2.396 1.916 2.396.166 0 .534-.179 1.1-.536.564-.357 1.14-.536 1.726-.536 1.884 0 2.868.4 2.952 1.197l-.503 1.766c0 .21.136.409.409.598.272.19.533.284.785.284l1.193-.378c.21 0 .063.242-.44.725zm-51.772 1.45a191.64 191.64 0 0 0-1.853 9.203c-.587 3.3-1.015 5.578-1.287 6.84a61.495 61.495 0 0 0-.722 4.002c-.21 1.409-.628 3.845-1.256 7.313-.628 3.467-1.047 5.872-1.257 7.217-.21 1.344-.366 2.05-.47 2.112-.105.063-.157-.054-.157-.347v-.567l.188-.883-.565 1.135c-.377.84-.775 2.216-1.194 4.129-.419 1.912-.65 3.215-.69 3.907-.043.695-.18 1.167-.408 1.42-.232.252-.388.493-.472.724-.084.231-.147.347-.189.347-.042 0-.084-.116-.125-.347-.042-.231-.126-.388-.251-.472-.126-.085-.2-.316-.22-.694-.021-.378-.251-1.776-.69-4.192-.44-2.417-.66-4.014-.66-4.79 0-.777.02-1.554.063-2.332a92.9 92.9 0 0 0 .094-2.333c.02-.778.135-3.13.345-7.06.21-3.93.638-7.722 1.288-11.379.649-3.656 1.13-6.597 1.444-8.825.314-2.227.523-3.435.628-3.624.104-.189.304-1.282.597-3.278.292-1.995.607-3.204.942-3.624.754-.84 1.297-2.081 1.633-3.72.083-.378.324-.86.722-1.45.398-.587.68-.882.848-.882.167 0 .355.105.565.315.21.211.419.315.629.315.794 0 1.171.463 1.13 1.386l-.314 2.082v.378c0 1.387.398 2.101 1.193 2.143.377 0 .68-.262.91-.788.23-.525.41-.788.535-.788.125 0 .157.526.094 1.576s-.419 2.994-1.067 5.83zm-19.708-7.124c-.189.022-.408.137-.66.347-.628.715-1.758 1.114-3.39 1.198l-1.445-.252c-.126 0-.274.02-.44.062-.168.043-.796.149-1.884.316-1.09.168-1.79.294-2.104.378-.315.084-.839.2-1.57.347-.734.147-2.24.462-4.523.945-2.282.484-3.57.747-3.862.788-.168.842-.471 2.26-.91 4.255-.44 1.997-.974 4.644-1.603 7.943-.627 3.3-1.067 5.578-1.318 6.84-.251 1.26-.493 2.594-.722 4.002-.231 1.409-.65 3.845-1.257 7.313-.607 3.466-1.005 5.872-1.193 7.217-.189 1.344-.357 2.05-.503 2.112-.147.063-.199-.054-.157-.347v-.567l.189-.883-.628 1.135a9.638 9.638 0 0 0-.785 2.427 121.4 121.4 0 0 1-.565 2.9c-.231 1.113-.367 2.017-.409 2.71-.042.694-.188 1.166-.44 1.419-.25.252-.43.493-.533.724-.105.231-.168.347-.189.347-.021 0-.052-.116-.094-.347-.042-.231-.136-.389-.283-.472-.146-.085-.22-.316-.22-.694 0-.379-.219-1.776-.659-4.192-.44-2.417-.66-4.014-.66-4.79 0-.777.021-1.554.063-2.332.042-.778.073-1.555.094-2.333.021-.778.136-3.13.346-7.06a89.442 89.442 0 0 1 1.32-11.379c.668-3.656 1.15-6.597 1.444-8.825.292-2.227.48-3.424.565-3.592.083-.168.209-.862.377-2.081-1.13.169-3.057.42-5.779.756-2.721.337-4.689.621-5.903.852a18.635 18.635 0 0 1-3.486.347c-1.11 0-1.99-.316-2.638-.946-.65-.631-.953-1.03-.91-1.198.041-.167.146-.252.314-.252.209-.126.533-.6.973-1.418.44-.82.66-1.544.66-2.175l-.189-1.513c0-.924.418-1.765 1.256-2.521.21-.168.66-.252 1.35-.252.691 0 1.957.462 3.8 1.386 2.721 1.345 6.364 1.997 10.928 1.954h1.006c.711-.798 1.15-1.691 1.318-2.678.167-.988.45-1.776.848-2.365.398-.587.68-.882.848-.882.167 0 .346.105.534.315.188.211.408.315.66.315.795 0 1.171.463 1.13 1.386l-.314 2.082c-.043.672.02 1.218.189 1.638l2.01-.126c.166-.378.292-.567.376-.567.083 0 .125.168.125.504 8.92-.714 13.86-1.47 14.823-2.27.585-.504 1.11-.756 1.57-.756 1.172 0 1.737.357 1.696 1.072v.252c0 .842.25 1.26.753 1.26l.88-.189c.125 0 .209.043.25.127a.66.66 0 0 1-.47.284zm-52.664 24.201c-.058.085-.24.157-.546.217-.306.06-1.424.37-3.353.93-1.93.563-3.21.89-3.843.988-.631.097-1.265.181-1.9.253-.636.072-1.27.15-1.905.234-.386.052-1.256.156-2.597.312.093.677.2 1.405.333 2.216l.153 1.448a66.03 66.03 0 0 0 2.193-.074c1.646-.075 2.654-.04 3.022.106.744.343 1.796.51 3.156.505.314.002.726.084 1.237.246.51.163.772.294.786.393.013.099-.058.223-.211.374-.155.15-.223.287-.206.411.064.47-.282.752-1.036.842l-1.718.073-.307.048c-1.128.172-1.677.497-1.647.973.03.224.268.37.714.44.445.072.674.145.684.22.01.074-.416.158-1.274.251-.86.094-2.469.126-4.827.094h-.014l.219 1.634c-.01.33.027 1.36.11 3.088.082 1.73.04 2.686-.126 2.87-.166.184-.195.75-.085 1.701.11.95.256 1.415.442 1.394l.546-.134c-.542.579-.985.9-1.329.964-.344.064-.589.174-.734.333-.146.158-.404.258-.773.3-1.524.177-2.922-2.237-4.639-12.125-.415.007-.826.014-1.25.024-2.73.063-4.618.093-5.665.09a68.496 68.496 0 0 0-3.313.07c-1.092.048-2.948.1-5.55.155-.057.14-.097.254-.11.318-.076.361-.961 1.322-.884 2.393 0 0-.828 2.563-.967 2.58a.767.767 0 0 0-.247.592.665.665 0 0 1-.252.558c-.172.138-.55.71-1.137 1.718-1.3 2.124-2.666 3.27-4.098 3.436l-.07.008c-.693.08-1.094-.156-1.205-.706-.042-.371.08-.936.367-1.7.287-.76.495-1.184.625-1.27.131-.086.218-.247.26-.488.043-.24.14-.415.29-.528.153-.11.514-.634 1.084-1.57a47.697 47.697 0 0 0 1.49-2.605c.423-.8.798-1.166.9-1.337.035-.058.284-.563.656-1.325-1.408.034-2.466.065-3.169.093-1.11.042-1.695.037-1.755-.017-.06-.054.031-.1.27-.136l.461-.07.733.001-.968-.193c-.714-.119-1.865-.183-3.454-.193-1.588-.01-2.666.016-3.233.078-.567.061-.962.04-1.186-.065a1.975 1.975 0 0 0-.627-.189c-.195-.021-.294-.044-.298-.069-.003-.024.088-.064.272-.117.185-.054.306-.123.365-.208.058-.085.24-.157.546-.216.306-.06 1.424-.37 3.353-.931 1.93-.562 3.21-.89 3.843-.988a49.3 49.3 0 0 1 1.9-.253 99.89 99.89 0 0 0 1.905-.235c.424-.056 1.439-.177 3.017-.36.62-1.28 1.245-2.576 1.754-3.635-1.285.058-2.005.072-2.14.04-.161-.038-1.066-.02-2.713.054-1.646.076-2.654.04-3.022-.106-.744-.342-1.797-.51-3.156-.504-.314-.002-.726-.085-1.237-.248-.51-.162-.773-.292-.786-.391-.013-.099.058-.224.211-.374.155-.15.223-.287.206-.412-.064-.47.282-.75 1.036-.842l1.717-.073.308-.047c1.128-.173 1.677-.497 1.647-.974-.03-.222-.268-.37-.714-.441-.445-.07-.674-.143-.684-.218-.01-.074.416-.158 1.274-.252.86-.093 2.469-.125 4.827-.094 1.682.023 3.463.02 5.333-.007a505.59 505.59 0 0 0 1.83-4.987c1.544-4.267 2.264-6.959 2.16-8.075-.106-1.115.06-2.414.498-3.9.102-.344.197-.704.296-1.056l-.04.004c-1.233.103-1.903.067-2.03.087-.523.08-.733-.027-1.842.058-1.108.085-1.658-.094-1.944-.267-.586-.405-1.411-.546-2.136-.591-.216-.004-.591.058-.978-.134-.385-.192-.612-.284-.644-.401-.032-.117-.2-.358-.13-.535a.746.746 0 0 0 .047-.484c-.15-.554.512-1.53.775-2.182.102-.252.797-.995 1.363-1.103.566-.109 2.005-.197 3.624-.155 1.62.042 3.076.302 4.931.364 1.9.062 2.82.08 3.537.088.717.008 2.353-.109 3.135-.167.783-.057 1.658-.135 3.66-.353 1.935-.21 3.434-.446 4.183-.494.749-.048 1.15-.041 1.203.022.053.064.002.117-.153.16l-.3.082-.5-.003.706.229c.514.141 1.316.22 2.404.234 1.088.015 1.819-.013 2.192-.084.374-.071.65-.044.826.079.177.125.334.199.472.224.137.025.21.052.218.08.008.03-.045.076-.159.138-.114.063-.181.145-.201.244-.021.1-.129.185-.324.253-.196.07-.89.433-2.08 1.089-1.19.657-1.991 1.04-2.401 1.154-.41.112-.824.21-1.242.293-.418.084-.833.175-1.248.273-.414.098-1.677.358-3.789.781-.076.016-.152.027-.228.041.235.534.417 1.09.479 1.63l1.426 12.38c.254 1.762.385 3.155.525 4.6 2.44-.053 4.17-.1 5.174-.138 1.11-.044 1.695-.039 1.755.015.06.054-.031.1-.27.136l-.461.07h-.733l.968.193c.714.118 1.865.183 3.454.192 1.588.01 2.666-.015 3.233-.077.567-.062.963-.04 1.186.065.224.105.433.168.627.189.195.02.295.043.298.068.003.025-.088.064-.272.117-.185.054-.306.123-.365.208zm-21.447-4.696c.007-.983-.602-7.448-.837-9.9a.38.38 0 0 0-.678-.199l-1.211 1.357c-1.089 1.405-1.652 3.858-2.424 5.599-.1.227-.421.892-.713 1.536-.219.482-.82 1.622-1.556 3.564-.315.83-.574 1.503-.782 2.026 2.316-.05 3.953-.075 4.898-.072a66.827 66.827 0 0 0 3.313-.07l.332-.014zm.812 8.315c-2.05.171-4.065.287-6.036.332-1.947.047-3.644.096-5.099.15l-1.51 3.399c3.019-.33 5.958-.531 8.811-.598 1.595-.038 3.02-.078 4.285-.121zm-33.572-20.697a191.077 191.077 0 0 0-1.853 9.204c-.587 3.3-1.016 5.578-1.288 6.84a62.284 62.284 0 0 0-.722 4.002c-.21 1.409-.628 3.845-1.256 7.313-.628 3.467-1.047 5.872-1.256 7.217-.21 1.344-.367 2.05-.471 2.112-.105.063-.157-.054-.157-.347v-.567l.188-.883-.565 1.135c-.377.84-.775 2.216-1.193 4.129-.42 1.912-.65 3.215-.691 3.907-.043.695-.179 1.167-.408 1.42-.231.252-.388.493-.471.724-.085.231-.148.347-.189.347-.042 0-.084-.116-.126-.347-.042-.231-.125-.388-.25-.472-.126-.085-.2-.316-.22-.694-.022-.378-.252-1.776-.691-4.192-.44-2.417-.66-4.014-.66-4.79 0-.777.02-1.554.063-2.332.041-.778.073-1.555.094-2.333.02-.778.135-3.13.346-7.06.209-3.93.638-7.722 1.287-11.379.649-3.656 1.13-6.597 1.445-8.825.314-2.227.523-3.435.628-3.624.104-.189.303-1.282.596-3.278.293-1.995.607-3.204.942-3.624.754-.84 1.298-2.081 1.633-3.72.084-.378.324-.86.723-1.45.397-.587.68-.882.847-.882.168 0 .356.105.566.315.209.211.418.315.628.315.795 0 1.172.463 1.13 1.386l-.314 2.082v.378c0 1.387.398 2.101 1.194 2.143.377 0 .68-.262.91-.788.23-.525.409-.788.534-.788.126 0 .157.526.095 1.576-.063 1.05-.42 2.994-1.068 5.83zm-28.564 4.066c-.105 0-.21.105-.315.316-.105.21-.67.315-1.695.315-1.027 0-2.199-.19-3.517-.568-1.32-.378-2.513-.714-3.58-1.008-1.068-.294-2.073-.442-3.015-.442-.942 0-1.906.022-2.89.064-.983.042-1.988.294-3.014.756-1.027.463-1.655.872-1.884 1.23-.23.357-.346.83-.346 1.417v1.135c.293.421.44.694.44.82.293 1.22 2.512 3.3 6.658 6.24a72.015 72.015 0 0 0 5.527 3.468c3.81 2.185 5.715 3.887 5.715 5.106v1.7c0 1.388.565 2.334 1.696 2.838h.188c.084 0 .146-.23.188-.693l-.314-1.388c0-.167.042-.252.126-.252.084 0 .24.243.471.725.23.484.345.937.345 1.356 0 1.345-.481 2.48-1.444 3.404-.21.21-.524.589-.942 1.134l-.754.757c.712-.336 1.13-.504 1.256-.504h.126c0 .295-.639.85-1.916 1.67s-2.25 1.481-2.92 1.986c-.67.504-2.283 1.176-4.836 2.017-2.555.84-5.098 1.26-7.631 1.26-2.534 0-4.847-.42-6.94-1.26-.545-.21-.985-.358-1.32-.441-.837 0-1.968-.568-3.39-1.702-1.425-1.135-2.283-1.849-2.576-2.143-1.925-2.144-2.993-5.022-3.203-8.636-.041-.505.042-.946.251-1.325.21-.378.44-1.008.691-1.89.377-1.01.796-1.513 1.256-1.513.796 0 1.423.22 1.885.662.46.44.722.714.785.819.062.105.177.189.345.252.167.063.754.599 1.759 1.608 2.344 2.228 4.574 3.573 6.689 4.033 2.113.464 3.903.694 5.37.694 2.93 0 5.61-.777 8.038-2.332l1.131-.63-.188-1.45c-.294-1.681-1.131-3.067-2.513-4.16a4.91 4.91 0 0 1-.879-.694c-.25-.252-.461-.41-.628-.473a.697.697 0 0 1-.377-.315c-.084-.147-.282-.294-.596-.441a4.75 4.75 0 0 1-.848-.505c-.251-.189-1.508-.86-3.769-2.017-2.26-1.156-3.716-2.017-4.365-2.584-.65-.567-1.036-.893-1.162-.977-.502 0-1.246-.525-2.23-1.577-.983-1.049-1.654-1.89-2.01-2.521-.355-.63-.533-1.47-.533-2.52 0-1.051.126-1.661.377-1.829.251-.168.377-.336.377-.504l-.063-.253c0-.21.157-.672.471-1.387a6.758 6.758 0 0 0 .565-2.143c.063-.714.649-1.607 1.759-2.679 1.109-1.071 1.853-1.69 2.23-1.86 2.01-1.05 3.244-1.596 3.705-1.638.46-.042 1.162-.2 2.104-.473.942-.273 2.282-.41 4.02-.41 1.737 0 3.495.432 5.275 1.292 1.78.862 3.161 1.85 4.146 2.963.983 1.114 1.507 1.913 1.57 2.395.063.484.491 1.104 1.287 1.86.795.757 1.203 1.398 1.225 1.923.02.526-.189.977-.628 1.355-.44.378-.713.568-.816.568zm.565-1.827c-.022-.295-.105-.515-.252-.662-.147-.147-.261-.221-.345-.221-.084 0-.116.126-.094.378.02.253.115.473.282.662.167.19.283.283.346.283s.083-.146.063-.44zm-47.877 18.5c0 .316-.65.716-1.947 1.199-1.299.482-2.324.808-3.078.977l.063 4.916v3.026l-.251-1.071c-.042.294-.116 1.22-.22 2.774-.105 1.554-.241 2.405-.408 2.552-.168.148-.252.651-.252 1.513 0 .86.084 1.292.252 1.292l.502-.063c-.544.462-.973.704-1.287.725-.314.02-.545.094-.691.22-.147.127-.388.19-.722.19-1.382 0-2.66-4.076-3.832-12.23-.293-2.269-.481-3.655-.565-4.16-.042-.126-.419-.189-1.13-.189-.713 0-2.513.252-5.401.756-2.89.505-4.47.873-4.743 1.104-.272.232-.408.389-.408.473l.691.377c0 .63-.398.946-1.193.946-.294.042-.493.221-.597.536-.105.315-.241.515-.408.599-.377 0-.587.483-.628 1.45v.126l-.69.567.313.505c0 .21-.094.43-.283.661-.188.232-.345.347-.47.347a.689.689 0 0 0-.283.504.598.598 0 0 1-.283.473c-.168.106-.565.578-1.193 1.419-1.382 1.764-2.721 2.647-4.02 2.647h-.063c-.628 0-.962-.252-1.005-.757 0-.335.168-.828.503-1.481.336-.65.565-1.008.69-1.072.126-.062.22-.198.284-.409.062-.21.167-.357.313-.442.148-.083.524-.513 1.131-1.291a43.062 43.062 0 0 0 1.601-2.175c.46-.672.775-1.04.943-1.103.166-.064.25-.2.25-.41-.125-.294-.68-.462-1.664-.505-.983-.04-1.548-.178-1.695-.41-.147-.23-.324-.367-.534-.41-.503 0-.534-.398-.094-1.197.44-.798.66-1.365.66-1.702v-.378c0-.672.941-1.344 2.825-2.018 1.885-.67 3.307-1.092 4.271-1.26.963-.167 1.643-.588 2.041-1.261.398-.672 1.508-2.837 3.33-6.493 1.82-3.655 2.741-5.988 2.763-6.997.02-1.008.303-2.153.848-3.435a79.802 79.802 0 0 0 1.57-4.003c.962-2.689 2.03-4.034 3.203-4.034h.565c1.256.21 1.968.673 2.135 1.387.126.337.189.945.189 1.828v1.45c0 .715.063 1.345.188 1.89l.251.757.88-.883c.92-.84 1.402-1.103 1.444-.787.042.315.063 1.397.063 3.246v11.22c.712-.209 1.214-.325 1.507-.346.293-.021.586-.01.88.03.292.043.816.317 1.57.821l.69.567-.69 1.765c-.21.63-.314 1.072-.314 1.324 0 .547.355.945 1.067 1.197.167.042.283.116.346.221s.135.158.22.158l1.821-.568c.126 0 .189.054.189.158 0 .105-.336.494-1.005 1.166-.67.673-1.005 1.166-1.005 1.481zm-14.069-11v-.125c-.125-.168-.273-.252-.44-.252-.376.126-.659.283-.847.472-.189.189-.283.326-.283.41 0 .085-.157.306-.471.662-.314.357-.9 1.366-1.758 3.025-.86 1.661-1.372 2.607-1.54 2.837-.167.232-.25.389-.25.473 0 .085.083.126.25.126.168 0 1.225-.241 3.172-.725 1.947-.482 2.92-.914 2.92-1.292z"/><path fill="none" d="M288.453 10.998c-.503.484-.754.81-.754.977l.503.126c-1.341.841-2.032 1.26-2.073 1.26l-.251-.063c-.67 0-1.55 1.24-2.639 3.72-.376.798-.565 1.597-.565 2.395v1.576l.315 3.53c0 .463-.106.82-.315 1.072-.838.84-1.79 1.292-2.857 1.355-1.068.063-1.687 0-1.853-.19-.168-.188-.461-.367-.88-.535-.837-.336-1.423-1.49-1.758-3.467a10.824 10.824 0 0 1-.063-1.197c0-1.723.409-3.53 1.225-5.422.816-1.89 1.225-2.972 1.225-3.246 0-.273-.063-.451-.189-.536-.125-.084-1.141-.126-3.046-.126-1.906 0-3.37.252-4.396.757-1.027.503-1.884 1.071-2.575 1.702-.691.63-1.256.976-1.696 1.04-.44.063-.702.136-.785.22-.042.21-.294.672-.754 1.387-.461.715-1.005 1.702-1.633 2.963-.628 1.26-.963 2.049-1.005 2.363-.042.315-.168.768-.377 1.356-.921 2.185-1.382 4.664-1.382 7.438s.283 5.295.849 7.564c.565 2.27 1.077 3.405 1.539 3.405.125.125.188.21.188.251.125.505.712 1.083 1.758 1.734 1.046.652 2.292.977 3.737.977 1.445 0 3.11-.86 4.993-2.584.712-.672 1.172-1.05 1.382-1.135.209-.084.335-.19.377-.315 0-.378.795-.903 2.386-1.576h.252c.125 0 .188.148.188.441l-.188 2.458c0 .673.063 1.009.188 1.009.21 0 .418-.136.628-.41.21-.272.335-.41.377-.41-.377 1.473-.681 2.27-.91 2.396a.86.86 0 0 0-.44.568c-.063.252-.712 1.04-1.947 2.363-1.236 1.324-1.853 2.09-1.853 2.301-.377.336-1.466.966-3.266 1.891s-3.371 1.387-4.71 1.387c-1.34 0-2.785-.253-4.334-.756-1.55-.504-2.492-1.03-2.827-1.576-.125-.127-.313-.19-.565-.19-.25 0-.921-.62-2.01-1.86-1.088-1.239-1.654-1.931-1.695-2.079-.042-.147-.148-.262-.314-.347-.168-.083-.356-.388-.565-.914-.21-.525-.42-.788-.628-.788a.719.719 0 0 1-.22-.41c-.022-.146-.136-.473-.346-.976-.836-2.06-1.402-5.044-1.695-8.952 0-.294-.02-.588-.063-.883 0-3.656 1.089-8.29 3.266-13.9 2.176-5.609 3.935-9.023 5.276-10.242.208-.168.355-.336.439-.505 0-.504 1.11-1.617 3.329-3.34 2.219-1.723 3.715-2.72 4.49-2.995l2.952-1.04c1.194-.42 2.24-.63 3.14-.63.9 0 1.968.283 3.204.85 1.234.568 2.261 1.65 3.077 3.247.817 1.598 1.455 2.396 1.916 2.396.166 0 .534-.179 1.1-.536.564-.357 1.14-.536 1.726-.536 1.884 0 2.868.4 2.952 1.197l-.503 1.766c0 .21.136.409.409.598.272.19.533.284.785.284l1.193-.378c.21 0 .063.242-.44.725zm-51.772 1.45a191.64 191.64 0 0 0-1.853 9.203c-.587 3.3-1.015 5.578-1.287 6.84a61.495 61.495 0 0 0-.722 4.002c-.21 1.409-.628 3.845-1.256 7.313-.628 3.467-1.047 5.872-1.257 7.217-.21 1.344-.366 2.05-.47 2.112-.105.063-.157-.054-.157-.347v-.567l.188-.883-.565 1.135c-.377.84-.775 2.216-1.194 4.129-.419 1.912-.65 3.215-.69 3.907-.043.695-.18 1.167-.408 1.42-.232.252-.388.493-.472.724-.084.231-.147.347-.189.347-.042 0-.084-.116-.125-.347-.042-.231-.126-.388-.251-.472-.126-.085-.2-.316-.22-.694-.021-.378-.251-1.776-.69-4.192-.44-2.417-.66-4.014-.66-4.79 0-.777.02-1.554.063-2.332a92.9 92.9 0 0 0 .094-2.333c.02-.778.135-3.13.345-7.06.21-3.93.638-7.722 1.288-11.379.649-3.656 1.13-6.597 1.444-8.825.314-2.227.523-3.435.628-3.624.104-.189.304-1.282.597-3.278.292-1.995.607-3.204.942-3.624.754-.84 1.297-2.081 1.633-3.72.083-.378.324-.86.722-1.45.398-.587.68-.882.848-.882.167 0 .355.105.565.315.21.211.419.315.629.315.794 0 1.171.463 1.13 1.386l-.314 2.082v.378c0 1.387.398 2.101 1.193 2.143.377 0 .68-.262.91-.788.23-.525.41-.788.535-.788.125 0 .157.526.094 1.576s-.419 2.994-1.067 5.83zm-19.708-7.124c-.189.022-.408.137-.66.347-.628.715-1.758 1.114-3.39 1.198l-1.445-.252c-.126 0-.274.02-.44.062-.168.043-.796.149-1.884.316-1.09.168-1.79.294-2.104.378-.315.084-.839.2-1.57.347-.734.147-2.24.462-4.523.945-2.282.484-3.57.747-3.862.788-.168.842-.471 2.26-.91 4.255-.44 1.997-.974 4.644-1.603 7.943-.627 3.3-1.067 5.578-1.318 6.84-.251 1.26-.493 2.594-.722 4.002-.231 1.409-.65 3.845-1.257 7.313-.607 3.466-1.005 5.872-1.193 7.217-.189 1.344-.357 2.05-.503 2.112-.147.063-.199-.054-.157-.347v-.567l.189-.883-.628 1.135a9.638 9.638 0 0 0-.785 2.427 121.4 121.4 0 0 1-.565 2.9c-.231 1.113-.367 2.017-.409 2.71-.042.694-.188 1.166-.44 1.419-.25.252-.43.493-.533.724-.105.231-.168.347-.189.347-.021 0-.052-.116-.094-.347-.042-.231-.136-.389-.283-.472-.146-.085-.22-.316-.22-.694 0-.379-.219-1.776-.659-4.192-.44-2.417-.66-4.014-.66-4.79 0-.777.021-1.554.063-2.332.042-.778.073-1.555.094-2.333.021-.778.136-3.13.346-7.06a89.442 89.442 0 0 1 1.32-11.379c.668-3.656 1.15-6.597 1.444-8.825.292-2.227.48-3.424.565-3.592.083-.168.209-.862.377-2.081-1.13.169-3.057.42-5.779.756-2.721.337-4.689.621-5.903.852a18.635 18.635 0 0 1-3.486.347c-1.11 0-1.99-.316-2.638-.946-.65-.631-.953-1.03-.91-1.198.041-.167.146-.252.314-.252.209-.126.533-.6.973-1.418.44-.82.66-1.544.66-2.175l-.189-1.513c0-.924.418-1.765 1.256-2.521.21-.168.66-.252 1.35-.252.691 0 1.957.462 3.8 1.386 2.721 1.345 6.364 1.997 10.928 1.954h1.006c.711-.798 1.15-1.691 1.318-2.678.167-.988.45-1.776.848-2.365.398-.587.68-.882.848-.882.167 0 .346.105.534.315.188.211.408.315.66.315.795 0 1.171.463 1.13 1.386l-.314 2.082c-.043.672.02 1.218.189 1.638l2.01-.126c.166-.378.292-.567.376-.567.083 0 .125.168.125.504 8.92-.714 13.86-1.47 14.823-2.27.585-.504 1.11-.756 1.57-.756 1.172 0 1.737.357 1.696 1.072v.252c0 .842.25 1.26.753 1.26l.88-.189c.125 0 .209.043.25.127a.66.66 0 0 1-.47.284zm-52.664 24.201c-.058.085-.24.157-.546.217-.306.06-1.424.37-3.353.93-1.93.563-3.21.89-3.843.988-.631.097-1.265.181-1.9.253-.636.072-1.27.15-1.905.234-.386.052-1.256.156-2.597.312.093.677.2 1.405.333 2.216l.153 1.448a66.03 66.03 0 0 0 2.193-.074c1.646-.075 2.654-.04 3.022.106.744.343 1.796.51 3.156.505.314.002.726.084 1.237.246.51.163.772.294.786.393.013.099-.058.223-.211.374-.155.15-.223.287-.206.411.064.47-.282.752-1.036.842l-1.718.073-.307.048c-1.128.172-1.677.497-1.647.973.03.224.268.37.714.44.445.072.674.145.684.22.01.074-.416.158-1.274.251-.86.094-2.469.126-4.827.094h-.014l.219 1.634c-.01.33.027 1.36.11 3.088.082 1.73.04 2.686-.126 2.87-.166.184-.195.75-.085 1.701.11.95.256 1.415.442 1.394l.546-.134c-.542.579-.985.9-1.329.964-.344.064-.589.174-.734.333-.146.158-.404.258-.773.3-1.524.177-2.922-2.237-4.639-12.125-.415.007-.826.014-1.25.024-2.73.063-4.618.093-5.665.09a68.496 68.496 0 0 0-3.313.07c-1.092.048-2.948.1-5.55.155-.057.14-.097.254-.11.318-.076.361-.961 1.322-.884 2.393 0 0-.828 2.563-.967 2.58a.767.767 0 0 0-.247.592.665.665 0 0 1-.252.558c-.172.138-.55.71-1.137 1.718-1.3 2.124-2.666 3.27-4.098 3.436l-.07.008c-.693.08-1.094-.156-1.205-.706-.042-.371.08-.936.367-1.7.287-.76.495-1.184.625-1.27.131-.086.218-.247.26-.488.043-.24.14-.415.29-.528.153-.11.514-.634 1.084-1.57a47.697 47.697 0 0 0 1.49-2.605c.423-.8.798-1.166.9-1.337.035-.058.284-.563.656-1.325-1.408.034-2.466.065-3.169.093-1.11.042-1.695.037-1.755-.017-.06-.054.031-.1.27-.136l.461-.07.733.001-.968-.193c-.714-.119-1.865-.183-3.454-.193-1.588-.01-2.666.016-3.233.078-.567.061-.962.04-1.186-.065a1.975 1.975 0 0 0-.627-.189c-.195-.021-.294-.044-.298-.069-.003-.024.088-.064.272-.117.185-.054.306-.123.365-.208.058-.085.24-.157.546-.216.306-.06 1.424-.37 3.353-.931 1.93-.562 3.21-.89 3.843-.988a49.3 49.3 0 0 1 1.9-.253 99.89 99.89 0 0 0 1.905-.235c.424-.056 1.439-.177 3.017-.36.62-1.28 1.245-2.576 1.754-3.635-1.285.058-2.005.072-2.14.04-.161-.038-1.066-.02-2.713.054-1.646.076-2.654.04-3.022-.106-.744-.342-1.797-.51-3.156-.504-.314-.002-.726-.085-1.237-.248-.51-.162-.773-.292-.786-.391-.013-.099.058-.224.211-.374.155-.15.223-.287.206-.412-.064-.47.282-.75 1.036-.842l1.717-.073.308-.047c1.128-.173 1.677-.497 1.647-.974-.03-.222-.268-.37-.714-.441-.445-.07-.674-.143-.684-.218-.01-.074.416-.158 1.274-.252.86-.093 2.469-.125 4.827-.094 1.682.023 3.463.02 5.333-.007a505.59 505.59 0 0 0 1.83-4.987c1.544-4.267 2.264-6.959 2.16-8.075-.106-1.115.06-2.414.498-3.9.102-.344.197-.704.296-1.056l-.04.004c-1.233.103-1.903.067-2.03.087-.523.08-.733-.027-1.842.058-1.108.085-1.658-.094-1.944-.267-.586-.405-1.411-.546-2.136-.591-.216-.004-.591.058-.978-.134-.385-.192-.612-.284-.644-.401-.032-.117-.2-.358-.13-.535a.746.746 0 0 0 .047-.484c-.15-.554.512-1.53.775-2.182.102-.252.797-.995 1.363-1.103.566-.109 2.005-.197 3.624-.155 1.62.042 3.076.302 4.931.364 1.9.062 2.82.08 3.537.088.717.008 2.353-.109 3.135-.167.783-.057 1.658-.135 3.66-.353 1.935-.21 3.434-.446 4.183-.494.749-.048 1.15-.041 1.203.022.053.064.002.117-.153.16l-.3.082-.5-.003.706.229c.514.141 1.316.22 2.404.234 1.088.015 1.819-.013 2.192-.084.374-.071.65-.044.826.079.177.125.334.199.472.224.137.025.21.052.218.08.008.03-.045.076-.159.138-.114.063-.181.145-.201.244-.021.1-.129.185-.324.253-.196.07-.89.433-2.08 1.089-1.19.657-1.991 1.04-2.401 1.154-.41.112-.824.21-1.242.293-.418.084-.833.175-1.248.273-.414.098-1.677.358-3.789.781-.076.016-.152.027-.228.041.235.534.417 1.09.479 1.63l1.426 12.38c.254 1.762.385 3.155.525 4.6 2.44-.053 4.17-.1 5.174-.138 1.11-.044 1.695-.039 1.755.015.06.054-.031.1-.27.136l-.461.07h-.733l.968.193c.714.118 1.865.183 3.454.192 1.588.01 2.666-.015 3.233-.077.567-.062.963-.04 1.186.065.224.105.433.168.627.189.195.02.295.043.298.068.003.025-.088.064-.272.117-.185.054-.306.123-.365.208zm-21.447-4.696c.007-.983-.602-7.448-.837-9.9a.38.38 0 0 0-.678-.199l-1.211 1.357c-1.089 1.405-1.652 3.858-2.424 5.599-.1.227-.421.892-.713 1.536-.219.482-.82 1.622-1.556 3.564-.315.83-.574 1.503-.782 2.026 2.316-.05 3.953-.075 4.898-.072a66.827 66.827 0 0 0 3.313-.07l.332-.014zm.812 8.315c-2.05.171-4.065.287-6.036.332-1.947.047-3.644.096-5.099.15l-1.51 3.399c3.019-.33 5.958-.531 8.811-.598 1.595-.038 3.02-.078 4.285-.121zm-33.572-20.697a191.077 191.077 0 0 0-1.853 9.204c-.587 3.3-1.016 5.578-1.288 6.84a62.284 62.284 0 0 0-.722 4.002c-.21 1.409-.628 3.845-1.256 7.313-.628 3.467-1.047 5.872-1.256 7.217-.21 1.344-.367 2.05-.471 2.112-.105.063-.157-.054-.157-.347v-.567l.188-.883-.565 1.135c-.377.84-.775 2.216-1.193 4.129-.42 1.912-.65 3.215-.691 3.907-.043.695-.179 1.167-.408 1.42-.231.252-.388.493-.471.724-.085.231-.148.347-.189.347-.042 0-.084-.116-.126-.347-.042-.231-.125-.388-.25-.472-.126-.085-.2-.316-.22-.694-.022-.378-.252-1.776-.691-4.192-.44-2.417-.66-4.014-.66-4.79 0-.777.02-1.554.063-2.332.041-.778.073-1.555.094-2.333.02-.778.135-3.13.346-7.06.209-3.93.638-7.722 1.287-11.379.649-3.656 1.13-6.597 1.445-8.825.314-2.227.523-3.435.628-3.624.104-.189.303-1.282.596-3.278.293-1.995.607-3.204.942-3.624.754-.84 1.298-2.081 1.633-3.72.084-.378.324-.86.723-1.45.397-.587.68-.882.847-.882.168 0 .356.105.566.315.209.211.418.315.628.315.795 0 1.172.463 1.13 1.386l-.314 2.082v.378c0 1.387.398 2.101 1.194 2.143.377 0 .68-.262.91-.788.23-.525.409-.788.534-.788.126 0 .157.526.095 1.576-.063 1.05-.42 2.994-1.068 5.83zm-28.564 4.066c-.105 0-.21.105-.315.316-.105.21-.67.315-1.695.315-1.027 0-2.199-.19-3.517-.568-1.32-.378-2.513-.714-3.58-1.008-1.068-.294-2.073-.442-3.015-.442-.942 0-1.906.022-2.89.064-.983.042-1.988.294-3.014.756-1.027.463-1.655.872-1.884 1.23-.23.357-.346.83-.346 1.417v1.135c.293.421.44.694.44.82.293 1.22 2.512 3.3 6.658 6.24a72.015 72.015 0 0 0 5.527 3.468c3.81 2.185 5.715 3.887 5.715 5.106v1.7c0 1.388.565 2.334 1.696 2.838h.188c.084 0 .146-.23.188-.693l-.314-1.388c0-.167.042-.252.126-.252.084 0 .24.243.471.725.23.484.345.937.345 1.356 0 1.345-.481 2.48-1.444 3.404-.21.21-.524.589-.942 1.134l-.754.757c.712-.336 1.13-.504 1.256-.504h.126c0 .295-.639.85-1.916 1.67s-2.25 1.481-2.92 1.986c-.67.504-2.283 1.176-4.836 2.017-2.555.84-5.098 1.26-7.631 1.26-2.534 0-4.847-.42-6.94-1.26-.545-.21-.985-.358-1.32-.441-.837 0-1.968-.568-3.39-1.702-1.425-1.135-2.283-1.849-2.576-2.143-1.925-2.144-2.993-5.022-3.203-8.636-.041-.505.042-.946.251-1.325.21-.378.44-1.008.691-1.89.377-1.01.796-1.513 1.256-1.513.796 0 1.423.22 1.885.662.46.44.722.714.785.819.062.105.177.189.345.252.167.063.754.599 1.759 1.608 2.344 2.228 4.574 3.573 6.689 4.033 2.113.464 3.903.694 5.37.694 2.93 0 5.61-.777 8.038-2.332l1.131-.63-.188-1.45c-.294-1.681-1.131-3.067-2.513-4.16a4.91 4.91 0 0 1-.879-.694c-.25-.252-.461-.41-.628-.473a.697.697 0 0 1-.377-.315c-.084-.147-.282-.294-.596-.441a4.75 4.75 0 0 1-.848-.505c-.251-.189-1.508-.86-3.769-2.017-2.26-1.156-3.716-2.017-4.365-2.584-.65-.567-1.036-.893-1.162-.977-.502 0-1.246-.525-2.23-1.577-.983-1.049-1.654-1.89-2.01-2.521-.355-.63-.533-1.47-.533-2.52 0-1.051.126-1.661.377-1.829.251-.168.377-.336.377-.504l-.063-.253c0-.21.157-.672.471-1.387a6.758 6.758 0 0 0 .565-2.143c.063-.714.649-1.607 1.759-2.679 1.109-1.071 1.853-1.69 2.23-1.86 2.01-1.05 3.244-1.596 3.705-1.638.46-.042 1.162-.2 2.104-.473.942-.273 2.282-.41 4.02-.41 1.737 0 3.495.432 5.275 1.292 1.78.862 3.161 1.85 4.146 2.963.983 1.114 1.507 1.913 1.57 2.395.063.484.491 1.104 1.287 1.86.795.757 1.203 1.398 1.225 1.923.02.526-.189.977-.628 1.355-.44.378-.713.568-.816.568zm.565-1.827c-.022-.295-.105-.515-.252-.662-.147-.147-.261-.221-.345-.221-.084 0-.116.126-.094.378.02.253.115.473.282.662.167.19.283.283.346.283s.083-.146.063-.44zm-47.877 18.5c0 .316-.65.716-1.947 1.199-1.299.482-2.324.808-3.078.977l.063 4.916v3.026l-.251-1.071c-.042.294-.116 1.22-.22 2.774-.105 1.554-.241 2.405-.408 2.552-.168.148-.252.651-.252 1.513 0 .86.084 1.292.252 1.292l.502-.063c-.544.462-.973.704-1.287.725-.314.02-.545.094-.691.22-.147.127-.388.19-.722.19-1.382 0-2.66-4.076-3.832-12.23-.293-2.269-.481-3.655-.565-4.16-.042-.126-.419-.189-1.13-.189-.713 0-2.513.252-5.401.756-2.89.505-4.47.873-4.743 1.104-.272.232-.408.389-.408.473l.691.377c0 .63-.398.946-1.193.946-.294.042-.493.221-.597.536-.105.315-.241.515-.408.599-.377 0-.587.483-.628 1.45v.126l-.69.567.313.505c0 .21-.094.43-.283.661-.188.232-.345.347-.47.347a.689.689 0 0 0-.283.504.598.598 0 0 1-.283.473c-.168.106-.565.578-1.193 1.419-1.382 1.764-2.721 2.647-4.02 2.647h-.063c-.628 0-.962-.252-1.005-.757 0-.335.168-.828.503-1.481.336-.65.565-1.008.69-1.072.126-.062.22-.198.284-.409.062-.21.167-.357.313-.442.148-.083.524-.513 1.131-1.291a43.062 43.062 0 0 0 1.601-2.175c.46-.672.775-1.04.943-1.103.166-.064.25-.2.25-.41-.125-.294-.68-.462-1.664-.505-.983-.04-1.548-.178-1.695-.41-.147-.23-.324-.367-.534-.41-.503 0-.534-.398-.094-1.197.44-.798.66-1.365.66-1.702v-.378c0-.672.941-1.344 2.825-2.018 1.885-.67 3.307-1.092 4.271-1.26.963-.167 1.643-.588 2.041-1.261.398-.672 1.508-2.837 3.33-6.493 1.82-3.655 2.741-5.988 2.763-6.997.02-1.008.303-2.153.848-3.435a79.802 79.802 0 0 0 1.57-4.003c.962-2.689 2.03-4.034 3.203-4.034h.565c1.256.21 1.968.673 2.135 1.387.126.337.189.945.189 1.828v1.45c0 .715.063 1.345.188 1.89l.251.757.88-.883c.92-.84 1.402-1.103 1.444-.787.042.315.063 1.397.063 3.246v11.22c.712-.209 1.214-.325 1.507-.346.293-.021.586-.01.88.03.292.043.816.317 1.57.821l.69.567-.69 1.765c-.21.63-.314 1.072-.314 1.324 0 .547.355.945 1.067 1.197.167.042.283.116.346.221s.135.158.22.158l1.821-.568c.126 0 .189.054.189.158 0 .105-.336.494-1.005 1.166-.67.673-1.005 1.166-1.005 1.481zm-14.069-11v-.125c-.125-.168-.273-.252-.44-.252-.376.126-.659.283-.847.472-.189.189-.283.326-.283.41 0 .085-.157.306-.471.662-.314.357-.9 1.366-1.758 3.025-.86 1.661-1.372 2.607-1.54 2.837-.167.232-.25.389-.25.473 0 .085.083.126.25.126.168 0 1.225-.241 3.172-.725 1.947-.482 2.92-.914 2.92-1.292z"/></g></g></svg>